<svg width="600" height="250" version="1.1" viewBox="0 0 158.75 66.146" xmlns="http://www.w3.org/2000/svg" xmlns:xlink="http://www.w3.org/1999/xlink">
 <defs>
  <linearGradient id="linearGradient1297" x1="111.44" x2="211.48" y1="141.8" y2="56.959" gradientUnits="userSpaceOnUse">
   <stop stop-color="#f2f2f2" offset="0"/>
   <stop stop-color="#f9f9f9" offset="1"/>
  </linearGradient>
 </defs>
 <g transform="translate(-69.987 -60.708)">
  <rect x="69.987" y="60.708" width="158.75" height="66.146" fill="url(#linearGradient1297)" stroke-linecap="round" stroke-linejoin="round" stroke-width=".7634"/>
  <g transform="matrix(1.3879 0 0 1.3879 21.39 -13.482)">
   <g stroke-width=".26458" aria-label="Autotool">
    <path d="m75.84 80.386-2.8363-7.4083h1.4499l2.921 7.4083zm-5.8526 0 2.921-7.4083h1.4499l-2.8363 7.4083zm1.3758-1.6298v-1.2806h4.6461v1.2806z" style="font-variation-settings:'wght' 700"/>
    <path d="m81.555 80.386-0.08467-0.97366v-4.318h1.397v5.2916zm-3.5877-2.2648v-3.0268h1.397v2.7093zm1.397-0.3175q0 0.52916 0.11642 0.83608 0.127 0.29633 0.34925 0.43392 0.23283 0.127 0.51858 0.127 0.55033 0.01058 0.83608-0.32808 0.28575-0.34925 0.28575-1.0054h0.47625q0 0.84666-0.254 1.4393-0.24342 0.58208-0.6985 0.89958-0.4445 0.30692-1.0477 0.30692-0.9525 0-1.4711-0.58208-0.508-0.59266-0.508-1.8097z" style="font-variation-settings:'wght' 700"/>
    <path d="m86.253 80.513q-0.87841 0-1.3335-0.43392-0.4445-0.43392-0.4445-1.2382v-5.3975h1.397v5.0906q0 0.33866 0.14817 0.51858 0.14817 0.16933 0.43392 0.16933 0.10583 0 0.23283-0.04233 0.127-0.05292 0.26458-0.14817l0.48683 1.0477q-0.254 0.1905-0.5715 0.30692-0.30692 0.127-0.61383 0.127zm-2.6352-4.2333v-1.1853h3.5772v1.1853z" style="font-variation-settings:'wght' 700"/>
    <path d="m90.72 80.513q-0.80433 0-1.4393-0.34925-0.62442-0.35983-0.98425-0.98425-0.34925-0.62442-0.34925-1.4393t0.34925-1.4393q0.34925-0.62441 0.97366-0.97366 0.62441-0.35983 1.4287-0.35983 0.81491 0 1.4393 0.35983 0.62441 0.34925 0.97366 0.97366 0.34925 0.62442 0.34925 1.4393t-0.34925 1.4393-0.97366 0.98425q-0.61383 0.34925-1.4182 0.34925zm0-1.2912q0.39158 0 0.68791-0.1905 0.29633-0.1905 0.45508-0.51858 0.16933-0.33867 0.16933-0.77258t-0.16933-0.762q-0.16933-0.33867-0.47625-0.52916-0.29633-0.1905-0.68792-0.1905-0.381 0-0.68791 0.1905-0.29633 0.1905-0.46567 0.52916-0.16933 0.32808-0.16933 0.762t0.16933 0.77258q0.16933 0.32808 0.47625 0.51858 0.30692 0.1905 0.6985 0.1905z" style="font-variation-settings:'wght' 700"/>
    <path d="m96.562 80.513q-0.87841 0-1.3335-0.43392-0.4445-0.43392-0.4445-1.2382v-5.3975h1.397v5.0906q0 0.33866 0.14817 0.51858 0.14817 0.16933 0.43392 0.16933 0.10583 0 0.23283-0.04233 0.127-0.05292 0.26458-0.14817l0.48683 1.0477q-0.254 0.1905-0.5715 0.30692-0.30692 0.127-0.61383 0.127zm-2.6352-4.2333v-1.1853h3.5772v1.1853z" style="font-variation-settings:'wght' 700"/>
    <path d="m101.03 80.513q-0.80433 0-1.4393-0.34925-0.62442-0.35983-0.98425-0.98425-0.34925-0.62442-0.34925-1.4393t0.34925-1.4393q0.34925-0.62441 0.97366-0.97366 0.62442-0.35983 1.4287-0.35983 0.81491 0 1.4393 0.35983 0.62441 0.34925 0.97366 0.97366 0.34925 0.62442 0.34925 1.4393t-0.34925 1.4393-0.97366 0.98425q-0.61383 0.34925-1.4182 0.34925zm0-1.2912q0.39158 0 0.68791-0.1905 0.29633-0.1905 0.45508-0.51858 0.16934-0.33867 0.16934-0.77258t-0.16934-0.762q-0.16933-0.33867-0.47625-0.52916-0.29633-0.1905-0.68791-0.1905-0.381 0-0.68791 0.1905-0.29634 0.1905-0.46567 0.52916-0.16933 0.32808-0.16933 0.762t0.16933 0.77258q0.16933 0.32808 0.47625 0.51858 0.30691 0.1905 0.6985 0.1905z" style="font-variation-settings:'wght' 700"/>
    <path d="m107.18 80.513q-0.80433 0-1.4393-0.34925-0.62442-0.35983-0.98425-0.98425-0.34925-0.62442-0.34925-1.4393t0.34925-1.4393q0.34925-0.62441 0.97367-0.97366 0.62441-0.35983 1.4287-0.35983 0.81492 0 1.4393 0.35983 0.62441 0.34925 0.97366 0.97366 0.34925 0.62442 0.34925 1.4393t-0.34925 1.4393-0.97366 0.98425q-0.61383 0.34925-1.4182 0.34925zm0-1.2912q0.39158 0 0.68791-0.1905 0.29633-0.1905 0.45508-0.51858 0.16934-0.33867 0.16934-0.77258t-0.16934-0.762q-0.16933-0.33867-0.47624-0.52916-0.29634-0.1905-0.68792-0.1905-0.381 0-0.68791 0.1905-0.29634 0.1905-0.46567 0.52916-0.16933 0.32808-0.16933 0.762t0.16933 0.77258q0.16933 0.32808 0.47625 0.51858 0.30692 0.1905 0.6985 0.1905z" style="font-variation-settings:'wght' 700"/>
    <path d="m110.84 80.386v-7.4083h1.397v7.4083z" style="font-variation-settings:'wght' 700"/>
   </g>
   <path d="m116.83 60.775-3.7166 6.4379 3.7166 6.4384 7.4336 4e-6 3.7171-6.4384-3.7171-6.4379zm1.62 2.806 4.1936-5e-6 0.0713 0.1235-3.1437 1.8146 1.9549 3.3863 3.1432-1.8156 0.0713 0.12299-2.097 3.6318-4.1936 4e-6 -2.097-3.6318z" fill="#f60" stroke-linecap="round" stroke-linejoin="round" stroke-width=".57898" style="font-variation-settings:'wght' 700"/>
  </g>
 </g>
</svg>
