<?xml version="1.0" encoding="UTF-8" standalone="no"?>
<!-- Created with Inkscape (http://www.inkscape.org/) -->

<svg
   width="830"
   height="220"
   viewBox="0 0 219.60416 58.20837"
   version="1.1"
   id="svg921"
   inkscape:version="1.1.2 (0a00cf5339, 2022-02-04)"
   sodipodi:docname="banner.svg"
   inkscape:export-filename="/home/alex/Pictures/logo_light_design.png"
   inkscape:export-xdpi="192"
   inkscape:export-ydpi="192"
   xmlns:inkscape="http://www.inkscape.org/namespaces/inkscape"
   xmlns:sodipodi="http://sodipodi.sourceforge.net/DTD/sodipodi-0.dtd"
   xmlns="http://www.w3.org/2000/svg"
   xmlns:svg="http://www.w3.org/2000/svg">
  <sodipodi:namedview
     id="namedview923"
     pagecolor="#ffffff"
     bordercolor="#666666"
     borderopacity="1.0"
     inkscape:pageshadow="2"
     inkscape:pageopacity="0.0"
     inkscape:pagecheckerboard="0"
     inkscape:document-units="mm"
     showgrid="false"
     inkscape:zoom="1"
     inkscape:cx="308.5"
     inkscape:cy="133"
     inkscape:window-width="2560"
     inkscape:window-height="1368"
     inkscape:window-x="0"
     inkscape:window-y="0"
     inkscape:window-maximized="1"
     inkscape:current-layer="layer1"
     fit-margin-top="0"
     fit-margin-left="0"
     fit-margin-right="0"
     fit-margin-bottom="0"
     units="px"
     width="600px"
     height="250px"
     showguides="true"
     inkscape:guide-bbox="true" />
  <defs
     id="defs918">
    <inkscape:path-effect
       effect="fillet_chamfer"
       id="path-effect839"
       is_visible="true"
       lpeversion="1"
       satellites_param="F,0,0,1,0,2.1166667,0,1 @ F,0,0,1,0,2.1166667,0,1 @ F,0,0,1,0,2.1166667,0,1 @ F,0,0,1,0,2.1166667,0,1"
       unit="px"
       method="auto"
       mode="F"
       radius="8"
       chamfer_steps="1"
       flexible="false"
       use_knot_distance="true"
       apply_no_radius="true"
       apply_with_radius="true"
       only_selected="false"
       hide_knots="false" />
  </defs>
  <g
     inkscape:label="Layer 1"
     inkscape:groupmode="layer"
     id="layer1"
     transform="translate(-69.986987,-60.707614)">
    <path
       style="fill:#f9f9f9;fill-opacity:1;stroke-width:0.842282;stroke-linecap:round;stroke-linejoin:round"
       id="rect1191"
       width="219.60417"
       height="58.208332"
       x="70.251488"
       y="60.707615"
       inkscape:path-effect="#path-effect839"
       d="M 72.368154,60.707615 H 287.73899 a 2.1166667,2.1166667 45 0 1 2.11667,2.116667 v 53.974998 a 2.1166667,2.1166667 135 0 1 -2.11667,2.11667 H 72.368154 a 2.1166667,2.1166667 45 0 1 -2.116666,-2.11667 V 62.824282 a 2.1166667,2.1166667 135 0 1 2.116666,-2.116667 z"
       sodipodi:type="rect" />
    <g
       id="g1053"
       transform="matrix(1.3879115,0,0,1.3879115,50.881453,-17.541447)">
      <g
         aria-label="Autotool"
         id="text236-7-4"
         style="font-size:10.5833px;line-height:1.25;stroke-width:0.264583">
        <path
           d="m 75.839552,80.385971 -2.836324,-7.40831 h 1.449912 l 2.92099,7.40831 z m -5.852565,0 2.920991,-7.40831 h 1.449912 l -2.836324,7.40831 z m 1.375829,-1.629828 v -1.280579 h 4.646069 v 1.280579 z"
           style="font-family:Figtree;-inkscape-font-specification:'Figtree, @wght=700';font-variation-settings:'wght' 700"
           id="path1357" />
        <path
           d="m 81.554521,80.385971 -0.08467,-0.973663 v -4.317987 h 1.396995 v 5.29165 z m -3.587739,-2.264826 v -3.026824 h 1.396996 v 2.709325 z m 1.396996,-0.317499 q 0,0.529165 0.116416,0.836081 0.127,0.296332 0.349249,0.433915 0.232833,0.127 0.518582,0.127 0.550331,0.01058 0.836081,-0.328083 0.285749,-0.349249 0.285749,-1.005413 h 0.476248 q 0,0.846664 -0.253999,1.439329 -0.243416,0.582081 -0.698498,0.89958 -0.444498,0.306916 -1.047746,0.306916 -0.952497,0 -1.471079,-0.582082 -0.507999,-0.592665 -0.507999,-1.809744 z"
           style="font-family:Figtree;-inkscape-font-specification:'Figtree, @wght=700';font-variation-settings:'wght' 700"
           id="path1359" />
        <path
           d="m 86.253495,80.512971 q -0.878414,0 -1.333496,-0.433916 -0.444498,-0.433915 -0.444498,-1.238246 v -5.397482 h 1.396995 v 5.090567 q 0,0.338665 0.148166,0.518581 0.148166,0.169333 0.433916,0.169333 0.105833,0 0.232832,-0.04233 0.127,-0.05292 0.264583,-0.148166 l 0.486831,1.047746 q -0.253999,0.1905 -0.571498,0.306916 -0.306915,0.127 -0.613831,0.127 z m -2.635242,-4.23332 v -1.18533 h 3.577156 v 1.18533 z"
           style="font-family:Figtree;-inkscape-font-specification:'Figtree, @wght=700';font-variation-settings:'wght' 700"
           id="path1361" />
        <path
           d="m 90.719644,80.512971 q -0.804331,0 -1.439329,-0.349249 -0.624415,-0.359832 -0.984247,-0.984247 -0.349249,-0.624415 -0.349249,-1.439329 0,-0.814914 0.349249,-1.439329 0.349249,-0.624414 0.973664,-0.973663 0.624414,-0.359832 1.428745,-0.359832 0.814914,0 1.439329,0.359832 0.624414,0.349249 0.973663,0.973663 0.349249,0.624415 0.349249,1.439329 0,0.814914 -0.349249,1.439329 -0.349249,0.624415 -0.973663,0.984247 -0.613832,0.349249 -1.418162,0.349249 z m 0,-1.291163 q 0.391582,0 0.687914,-0.190499 0.296333,-0.1905 0.455082,-0.518582 0.169333,-0.338666 0.169333,-0.772581 0,-0.433915 -0.169333,-0.761997 -0.169333,-0.338666 -0.476248,-0.529165 -0.296333,-0.1905 -0.687915,-0.1905 -0.380999,0 -0.687914,0.1905 -0.296333,0.190499 -0.465666,0.529165 -0.169332,0.328082 -0.169332,0.761997 0,0.433915 0.169332,0.772581 0.169333,0.328082 0.476249,0.518582 0.306916,0.190499 0.698498,0.190499 z"
           style="font-family:Figtree;-inkscape-font-specification:'Figtree, @wght=700';font-variation-settings:'wght' 700"
           id="path1363" />
        <path
           d="m 96.561617,80.512971 q -0.878413,0 -1.333495,-0.433916 -0.444499,-0.433915 -0.444499,-1.238246 v -5.397482 h 1.396996 v 5.090567 q 0,0.338665 0.148166,0.518581 0.148166,0.169333 0.433915,0.169333 0.105833,0 0.232833,-0.04233 0.126999,-0.05292 0.264582,-0.148166 l 0.486832,1.047746 q -0.253999,0.1905 -0.571498,0.306916 -0.306916,0.127 -0.613832,0.127 z m -2.635241,-4.23332 v -1.18533 h 3.577155 v 1.18533 z"
           style="font-family:Figtree;-inkscape-font-specification:'Figtree, @wght=700';font-variation-settings:'wght' 700"
           id="path1365" />
        <path
           d="m 101.02777,80.512971 q -0.80433,0 -1.439332,-0.349249 -0.624415,-0.359832 -0.984247,-0.984247 -0.349249,-0.624415 -0.349249,-1.439329 0,-0.814914 0.349249,-1.439329 0.349249,-0.624414 0.973663,-0.973663 0.624416,-0.359832 1.428746,-0.359832 0.81491,0 1.43933,0.359832 0.62441,0.349249 0.97366,0.973663 0.34925,0.624415 0.34925,1.439329 0,0.814914 -0.34925,1.439329 -0.34925,0.624415 -0.97366,0.984247 -0.61383,0.349249 -1.41816,0.349249 z m 0,-1.291163 q 0.39158,0 0.68791,-0.190499 0.29633,-0.1905 0.45508,-0.518582 0.16934,-0.338666 0.16934,-0.772581 0,-0.433915 -0.16934,-0.761997 -0.16933,-0.338666 -0.47625,-0.529165 -0.29633,-0.1905 -0.68791,-0.1905 -0.381,0 -0.68791,0.1905 -0.29634,0.190499 -0.46567,0.529165 -0.169333,0.328082 -0.169333,0.761997 0,0.433915 0.169333,0.772581 0.16933,0.328082 0.47625,0.518582 0.30691,0.190499 0.6985,0.190499 z"
           style="font-family:Figtree;-inkscape-font-specification:'Figtree, @wght=700';font-variation-settings:'wght' 700"
           id="path1367" />
        <path
           d="m 107.17666,80.512971 q -0.80433,0 -1.43933,-0.349249 -0.62442,-0.359832 -0.98425,-0.984247 -0.34925,-0.624415 -0.34925,-1.439329 0,-0.814914 0.34925,-1.439329 0.34925,-0.624414 0.97367,-0.973663 0.62441,-0.359832 1.42874,-0.359832 0.81492,0 1.43933,0.359832 0.62441,0.349249 0.97366,0.973663 0.34925,0.624415 0.34925,1.439329 0,0.814914 -0.34925,1.439329 -0.34925,0.624415 -0.97366,0.984247 -0.61383,0.349249 -1.41816,0.349249 z m 0,-1.291163 q 0.39158,0 0.68791,-0.190499 0.29633,-0.1905 0.45508,-0.518582 0.16934,-0.338666 0.16934,-0.772581 0,-0.433915 -0.16934,-0.761997 -0.16933,-0.338666 -0.47624,-0.529165 -0.29634,-0.1905 -0.68792,-0.1905 -0.381,0 -0.68791,0.1905 -0.29634,0.190499 -0.46567,0.529165 -0.16933,0.328082 -0.16933,0.761997 0,0.433915 0.16933,0.772581 0.16933,0.328082 0.47625,0.518582 0.30692,0.190499 0.6985,0.190499 z"
           style="font-family:Figtree;-inkscape-font-specification:'Figtree, @wght=700';font-variation-settings:'wght' 700"
           id="path1369" />
        <path
           d="m 110.83847,80.385971 v -7.40831 h 1.397 v 7.40831 z"
           style="font-family:Figtree;-inkscape-font-specification:'Figtree, @wght=700';font-variation-settings:'wght' 700"
           id="path1371" />
      </g>
      <path
         id="path3217-4-7"
         style="font-variation-settings:'wght' 700;fill:#ff6600;stroke-width:0.578977;stroke-linecap:round;stroke-linejoin:round"
         inkscape:transform-center-x="1.23854e-06"
         inkscape:transform-center-y="-3.07037e-06"
         d="m 116.82867,60.77519 -3.71657,6.437853 3.71657,6.438353 7.43365,4e-6 3.71709,-6.438361 -3.71709,-6.437853 z m 1.62005,2.806032 4.19355,-5e-6 0.0713,0.123505 -3.14368,1.814602 1.95492,3.386346 3.14316,-1.815619 0.0713,0.122988 -2.09703,3.631817 -4.19355,4e-6 -2.09702,-3.631821 z"
         sodipodi:nodetypes="cccccccccccccccccc" />
    </g>
  </g>
</svg>
