<?xml version="1.0" encoding="UTF-8" standalone="no"?>
<!-- Created with Inkscape (http://www.inkscape.org/) -->

<svg
   width="58.02586mm"
   height="19.80546mm"
   viewBox="0 0 58.02586 19.80546"
   version="1.1"
   id="svg1061"
   inkscape:version="1.1.2 (0a00cf5339, 2022-02-04)"
   sodipodi:docname="logo_dark_design.svg"
   xmlns:inkscape="http://www.inkscape.org/namespaces/inkscape"
   xmlns:sodipodi="http://sodipodi.sourceforge.net/DTD/sodipodi-0.dtd"
   xmlns="http://www.w3.org/2000/svg"
   xmlns:svg="http://www.w3.org/2000/svg">
  <sodipodi:namedview
     id="namedview1063"
     pagecolor="#ffffff"
     bordercolor="#666666"
     borderopacity="1.0"
     inkscape:pageshadow="2"
     inkscape:pageopacity="0.0"
     inkscape:pagecheckerboard="0"
     inkscape:document-units="mm"
     showgrid="false"
     inkscape:zoom="4.1121711"
     inkscape:cx="158.18894"
     inkscape:cy="29.424845"
     inkscape:window-width="2560"
     inkscape:window-height="1368"
     inkscape:window-x="0"
     inkscape:window-y="0"
     inkscape:window-maximized="1"
     inkscape:current-layer="layer1"
     lock-margins="false"
     fit-margin-top="0"
     fit-margin-left="0"
     fit-margin-right="0"
     fit-margin-bottom="0" />
  <defs
     id="defs1058" />
  <g
     inkscape:label="Layer 1"
     inkscape:groupmode="layer"
     id="layer1"
     transform="translate(-62.70766,-69.442858)">
    <g
       aria-label="Autotool"
       id="text236-7-4-3"
       style="font-size:10.5833px;line-height:1.25;fill:#f9f9f9;stroke-width:0.264583">
      <path
         d="M 68.560225,89.121315 65.7239,81.713005 h 1.449912 l 2.920991,7.40831 z m -5.852565,0 2.920991,-7.40831 h 1.449912 l -2.836325,7.40831 z m 1.375829,-1.629828 v -1.280579 h 4.646068 v 1.280579 z"
         style="font-family:Figtree;-inkscape-font-specification:'Figtree, @wght=700';font-variation-settings:'wght' 700"
         id="path1276" />
      <path
         d="m 74.275194,89.121315 -0.08467,-0.973664 v -4.317986 h 1.396996 v 5.29165 z m -3.587739,-2.264826 v -3.026824 h 1.396996 v 2.709325 z m 1.396996,-0.317499 q 0,0.529165 0.116416,0.836081 0.127,0.296332 0.349249,0.433915 0.232832,0.126999 0.518582,0.126999 0.550331,0.01058 0.83608,-0.328082 0.285749,-0.349249 0.285749,-1.005413 h 0.476249 q 0,0.846664 -0.253999,1.439328 -0.243416,0.582082 -0.698498,0.899581 -0.444499,0.306916 -1.047747,0.306916 -0.952497,0 -1.471079,-0.582082 -0.507998,-0.592665 -0.507998,-1.809744 z"
         style="font-family:Figtree;-inkscape-font-specification:'Figtree, @wght=700';font-variation-settings:'wght' 700"
         id="path1278" />
      <path
         d="m 78.974167,89.248315 q -0.878413,0 -1.333495,-0.433916 -0.444499,-0.433915 -0.444499,-1.238246 V 82.17867 h 1.396996 v 5.090568 q 0,0.338665 0.148166,0.518581 0.148166,0.169333 0.433915,0.169333 0.105833,0 0.232833,-0.04233 0.126999,-0.05292 0.264582,-0.148166 l 0.486832,1.047746 q -0.253999,0.1905 -0.571498,0.306916 -0.306916,0.127 -0.613832,0.127 z m -2.635241,-4.23332 v -1.18533 h 3.577155 v 1.18533 z"
         style="font-family:Figtree;-inkscape-font-specification:'Figtree, @wght=700';font-variation-settings:'wght' 700"
         id="path1280" />
      <path
         d="m 83.440316,89.248315 q -0.804331,0 -1.439329,-0.349249 -0.624414,-0.359832 -0.984246,-0.984247 -0.349249,-0.624415 -0.349249,-1.439329 0,-0.814914 0.349249,-1.439329 0.349249,-0.624414 0.973663,-0.973663 0.624415,-0.359832 1.428746,-0.359832 0.814914,0 1.439328,0.359832 0.624415,0.349249 0.973664,0.973663 0.349249,0.624415 0.349249,1.439329 0,0.814914 -0.349249,1.439329 -0.349249,0.624415 -0.973664,0.984247 -0.613831,0.349249 -1.418162,0.349249 z m 0,-1.291163 q 0.391582,0 0.687915,-0.190499 0.296332,-0.1905 0.455082,-0.518582 0.169332,-0.338666 0.169332,-0.772581 0,-0.433915 -0.169332,-0.761997 -0.169333,-0.338666 -0.476249,-0.529165 -0.296332,-0.1905 -0.687914,-0.1905 -0.380999,0 -0.687915,0.1905 -0.296332,0.190499 -0.465665,0.529165 -0.169333,0.328082 -0.169333,0.761997 0,0.433915 0.169333,0.772581 0.169333,0.328082 0.476248,0.518582 0.306916,0.190499 0.698498,0.190499 z"
         style="font-family:Figtree;-inkscape-font-specification:'Figtree, @wght=700';font-variation-settings:'wght' 700"
         id="path1282" />
      <path
         d="m 89.28229,89.248315 q -0.878414,0 -1.333496,-0.433916 -0.444498,-0.433915 -0.444498,-1.238246 V 82.17867 h 1.396995 v 5.090568 q 0,0.338665 0.148167,0.518581 0.148166,0.169333 0.433915,0.169333 0.105833,0 0.232832,-0.04233 0.127,-0.05292 0.264583,-0.148166 l 0.486832,1.047746 q -0.254,0.1905 -0.571499,0.306916 -0.306915,0.127 -0.613831,0.127 z m -2.635242,-4.23332 v -1.18533 h 3.577156 v 1.18533 z"
         style="font-family:Figtree;-inkscape-font-specification:'Figtree, @wght=700';font-variation-settings:'wght' 700"
         id="path1284" />
      <path
         d="m 93.748439,89.248315 q -0.804331,0 -1.439329,-0.349249 -0.624415,-0.359832 -0.984247,-0.984247 -0.349249,-0.624415 -0.349249,-1.439329 0,-0.814914 0.349249,-1.439329 0.349249,-0.624414 0.973664,-0.973663 0.624415,-0.359832 1.428745,-0.359832 0.814914,0 1.439329,0.359832 0.624415,0.349249 0.973664,0.973663 0.349248,0.624415 0.349248,1.439329 0,0.814914 -0.349248,1.439329 -0.349249,0.624415 -0.973664,0.984247 -0.613831,0.349249 -1.418162,0.349249 z m 0,-1.291163 q 0.391582,0 0.687914,-0.190499 0.296333,-0.1905 0.455082,-0.518582 0.169333,-0.338666 0.169333,-0.772581 0,-0.433915 -0.169333,-0.761997 -0.169333,-0.338666 -0.476248,-0.529165 -0.296333,-0.1905 -0.687915,-0.1905 -0.380999,0 -0.687914,0.1905 -0.296333,0.190499 -0.465665,0.529165 -0.169333,0.328082 -0.169333,0.761997 0,0.433915 0.169333,0.772581 0.169332,0.328082 0.476248,0.518582 0.306916,0.190499 0.698498,0.190499 z"
         style="font-family:Figtree;-inkscape-font-specification:'Figtree, @wght=700';font-variation-settings:'wght' 700"
         id="path1286" />
      <path
         d="m 99.89733,89.248315 q -0.80433,0 -1.439328,-0.349249 -0.624415,-0.359832 -0.984247,-0.984247 -0.349249,-0.624415 -0.349249,-1.439329 0,-0.814914 0.349249,-1.439329 0.349249,-0.624414 0.973663,-0.973663 0.624415,-0.359832 1.428746,-0.359832 0.814916,0 1.439326,0.359832 0.62442,0.349249 0.97367,0.973663 0.34924,0.624415 0.34924,1.439329 0,0.814914 -0.34924,1.439329 -0.34925,0.624415 -0.97367,0.984247 -0.61383,0.349249 -1.41816,0.349249 z m 0,-1.291163 q 0.39158,0 0.68791,-0.190499 0.29634,-0.1905 0.45509,-0.518582 0.16933,-0.338666 0.16933,-0.772581 0,-0.433915 -0.16933,-0.761997 -0.16934,-0.338666 -0.47625,-0.529165 -0.29633,-0.1905 -0.687916,-0.1905 -0.380999,0 -0.687915,0.1905 -0.296332,0.190499 -0.465665,0.529165 -0.169333,0.328082 -0.169333,0.761997 0,0.433915 0.169333,0.772581 0.169333,0.328082 0.476249,0.518582 0.306915,0.190499 0.698497,0.190499 z"
         style="font-family:Figtree;-inkscape-font-specification:'Figtree, @wght=700';font-variation-settings:'wght' 700"
         id="path1288" />
      <path
         d="m 103.55915,89.121315 v -7.40831 h 1.39699 v 7.40831 z"
         style="font-family:Figtree;-inkscape-font-specification:'Figtree, @wght=700';font-variation-settings:'wght' 700"
         id="path1290" />
    </g>
    <path
       id="path3217-4-7-3"
       style="font-variation-settings:'wght' 700;fill:#ff6600;stroke-width:0.578977;stroke-linecap:round;stroke-linejoin:round"
       inkscape:transform-center-x="1.23854e-06"
       inkscape:transform-center-y="-3.07037e-06"
       d="m 109.4937,69.548493 -3.71657,6.437853 3.71657,6.438353 7.43365,4e-6 3.71709,-6.438361 -3.71709,-6.437853 z m 1.62005,2.806032 4.19355,-5e-6 0.0713,0.123505 -3.14368,1.814602 1.95492,3.386346 3.14316,-1.815619 0.0713,0.122988 -2.09703,3.631817 -4.19355,4e-6 -2.09702,-3.631821 z"
       sodipodi:nodetypes="cccccccccccccccccc" />
  </g>
</svg>
